<?xml version="1.0" encoding="UTF-8"?>
<svg width="18px" height="18px" viewBox="0 0 18 18" version="1.1" xmlns="http://www.w3.org/2000/svg" xmlns:xlink="http://www.w3.org/1999/xlink">
    <title>check_circle_20dp_FILL1_wght600_GRAD0_opsz20</title>
    <g id="Page-1" stroke="none" stroke-width="1" fill="none" fill-rule="evenodd">
        <g id="check_circle_20dp_FILL1_wght600_GRAD0_opsz20" transform="translate(0.5996, 0.5996)" fill="#35ADC2" fill-rule="nonzero">
            <path d="M7.3025,11.6358333 L12.4375,6.521875 L11.0570833,5.12958333 L7.3025,8.86333333 L5.673125,7.25458333 L4.29270833,8.646875 L7.3025,11.6358333 Z M8.40041667,16.8008333 C7.24041667,16.8008333 6.15076389,16.5823611 5.13145833,16.1454167 C4.11229167,15.7084722 3.22076389,15.1079861 2.456875,14.3439583 C1.69284722,13.5800694 1.09236111,12.6885417 0.655416667,11.669375 C0.218472222,10.6500694 5.92118946e-16,9.56041667 5.92118946e-16,8.40041667 C5.92118946e-16,7.22652778 0.218472222,6.13340278 0.655416667,5.12104167 C1.09236111,4.10881944 1.69284722,3.22076389 2.456875,2.456875 C3.22076389,1.69284722 4.11229167,1.09236111 5.13145833,0.655416667 C6.15076389,0.218472222 7.24041667,0 8.40041667,0 C9.57430556,0 10.6674306,0.218472222 11.6797917,0.655416667 C12.6920139,1.09236111 13.5800694,1.69284722 14.3439583,2.456875 C15.1079861,3.22076389 15.7084722,4.10881944 16.1454167,5.12104167 C16.5823611,6.13340278 16.8008333,7.22652778 16.8008333,8.40041667 C16.8008333,9.56041667 16.5823611,10.6500694 16.1454167,11.669375 C15.7084722,12.6885417 15.1079861,13.5800694 14.3439583,14.3439583 C13.5800694,15.1079861 12.6920139,15.7084722 11.6797917,16.1454167 C10.6674306,16.5823611 9.57430556,16.8008333 8.40041667,16.8008333 Z" id="Shape"></path>
        </g>
    </g>
</svg>