<?xml version="1.0" encoding="UTF-8"?>
<svg width="130.551431px" height="28px" viewBox="0 0 130.551431 28" version="1.1" xmlns="http://www.w3.org/2000/svg" xmlns:xlink="http://www.w3.org/1999/xlink">
    <title>Logo [Dark]</title>
    <g id="Logo-[Dark]" stroke="none" stroke-width="1" fill="none" fill-rule="evenodd">
        <path d="M46.2780687,17.7000742 C48.505196,22.4373753 53.190357,24.3293163 58.1883587,22.7278702 C58.4863021,22.6285557 58.6998283,22.7229044 58.8289371,23.0109165 L60.3335516,26.407472 C60.4378318,26.6507925 60.3658288,26.8171442 60.1175426,26.9065273 C42.0249257,33.5581151 32.6843981,7.44337043 49.7938015,0.963100074 C62.866071,-3.99021003 74.3517916,11.2198038 65.9497859,22.4820668 C65.7710198,22.7154559 65.6195652,22.6980758 65.4954221,22.4299267 L63.6034811,18.3108583 C63.4992009,18.082435 63.4818209,17.8490459 63.551341,17.6106912 C64.7381492,13.3451339 63.9783933,9.94112981 61.2720735,7.39867891 C53.8383841,0.419353251 42.0025799,8.60534994 46.2780687,17.7000742 Z" id="Path" fill="#FFFFFF" fill-rule="nonzero"></path>
        <path d="M29.2133567,0.925857141 L40.4979654,26.8767329 C40.6270743,27.1746764 40.5302426,27.3236484 40.2074706,27.3236484 L36.0660564,27.3236484 C35.8176705,27.3236484 35.5938657,27.1737224 35.4999638,26.9437702 L34.3305357,24.172896 C34.2212898,23.9146783 34.0276265,23.7855695 33.749546,23.7855695 L23.6716083,23.7855695 C23.4034592,23.7855695 23.2172445,23.9072297 23.1129643,24.1505502 L21.9584333,26.8767329 C21.8342902,27.1746764 21.6083498,27.3236484 21.280612,27.3236484 L17.5190757,27.3236484 C17.1218178,27.3236484 17.0026404,27.1423992 17.1615436,26.7799013 C20.6872079,18.7254963 24.1483178,10.6487455 27.5448733,2.54964902 C27.8527482,1.81968754 28.1705546,1.24862923 28.4982924,0.836474102 C28.7912701,0.469010496 29.0296249,0.498804842 29.2133567,0.925857141 Z M28.7403715,11.3062045 C28.6408683,11.3062045 28.5511805,11.3661936 28.5131896,11.4581586 L25.2358115,19.1525486 C25.2034287,19.2280923 25.2109468,19.3148223 25.2558455,19.383667 C25.3007442,19.4525117 25.3770814,19.4943597 25.4592691,19.4951836 L31.9842309,19.5026398 L32.0440563,19.495732 C32.1021554,19.4816468 32.1538897,19.4466462 32.1885851,19.3962819 C32.2348456,19.3291296 32.2447921,19.2434066 32.2151371,19.1674458 L28.9675534,11.4581586 C28.9295624,11.3661936 28.8398746,11.3062045 28.7403715,11.3062045 Z" id="Combined-Shape" fill="#FFFFFF" fill-rule="nonzero"></path>
        <path d="M113.665432,27.3236481 L109.836858,27.3236481 C109.655854,27.3236481 109.509065,27.1769149 109.509065,26.9959103 L109.509065,0.933305728 C109.506632,0.797928658 109.58765,0.674957859 109.713022,0.62381949 C109.838393,0.572681122 109.982306,0.603904002 110.075213,0.702399543 L130.461995,21.8265912 C130.520836,21.8889113 130.552923,21.971802 130.551431,22.0574974 L130.551431,27.6737317 C130.550772,27.8077469 130.468634,27.9278911 130.343978,27.9770975 C130.219321,28.0263039 130.077266,27.9946573 129.985285,27.8971893 L114.522019,11.7858964 C114.429112,11.6874009 114.285199,11.656178 114.159828,11.7073164 C114.034456,11.7584547 113.953439,11.8814255 113.955927,12.0168026 L113.99317,26.9959103 C113.99317,27.1769149 113.846436,27.3236481 113.665432,27.3236481 L113.665432,27.3236481 Z" id="Path" fill="#FFFFFF" fill-rule="nonzero"></path>
        <path d="M6.94953131,17.0445986 C15.9623211,17.3350935 15.4558172,3.7861144 5.07248749,5.6259153 C4.80433837,5.67557254 4.67026381,5.83695858 4.67026381,6.11007343 L4.67026381,26.8543872 C4.67026381,27.1672278 4.51632635,27.3236481 4.20845144,27.3236481 L0.402223677,27.3236481 C0.134074559,27.3236481 0,27.1895736 0,26.9214244 L0.0223457599,1.63347287 C0.0223457599,1.40504955 0.136557421,1.28835502 0.364980744,1.2833893 C8.55842602,1.0599317 19.6493715,1.01524018 17.8244678,13.0968477 C17.0200204,18.4101728 13.4099388,21.1289069 6.99422283,21.25305 C6.87313403,21.2570886 6.75559424,21.211792 6.66853119,21.1275374 C6.58146813,21.0432828 6.53234313,20.9272909 6.53241046,20.8061348 L6.53241046,17.4468223 C6.53241046,17.1687417 6.67145075,17.0346671 6.94953131,17.0445986 Z" id="Path" fill="#FFFFFF" fill-rule="nonzero"></path>
        <path d="M93.0551926,18.243821 C92.8466322,29.3347665 76.4448444,31.1224273 73.3462324,21.7670025 C73.0433232,20.8533092 72.8794543,19.289106 72.8546257,17.0743929 C72.8000027,11.9348682 72.7975199,6.78292908 72.8471771,1.6185757 C72.8471771,1.3752552 72.9688374,1.25359495 73.2121579,1.25359495 L77.0928715,1.25359495 C77.3411577,1.25359495 77.4677837,1.37773806 77.4727494,1.62602428 C77.4826809,7.21742997 77.497578,12.8038699 77.5174409,18.3853442 C77.5323381,25.0145863 88.1912655,25.2976326 88.2434057,18.3406527 C88.2880972,12.7740756 88.2980286,7.20749852 88.2732,1.64092146 C88.2732,1.38270379 88.4023088,1.25359495 88.6605265,1.25359495 L92.7349034,1.25359495 C92.9682924,1.25359495 93.0874698,1.37277234 93.0924355,1.61112711 C93.1669214,7.162807 93.1545071,12.7070383 93.0551926,18.243821 Z" id="Path" fill="#FFFFFF" fill-rule="nonzero"></path>
        <path d="M98.9686698,1.25359495 L103.290251,1.25359495 C103.433845,1.25359495 103.550251,1.37000092 103.550251,1.51359495 L103.550251,6.02883951 C103.550251,6.17243354 103.433845,6.28883951 103.290251,6.28883951 L98.9686698,6.28883951 C98.8250758,6.28883951 98.7086698,6.17243354 98.7086698,6.02883951 L98.7086698,1.51359495 C98.7086698,1.37000092 98.8250758,1.25359495 98.9686698,1.25359495 Z" id="Rectangle" fill="#35ADC2" fill-rule="nonzero" transform="translate(101.1295, 3.7712) rotate(-0.1) translate(-101.1295, -3.7712)"></path>
        <path d="M126.08222,14.5791164 L126.08222,1.48450114 C126.08222,1.35697517 126.185606,1.25359495 126.313132,1.25359495 L130.320471,1.25359495 C130.447997,1.25359495 130.551383,1.35697517 130.551383,1.48450114 L130.551383,18.8173622 C130.552046,18.9131773 130.49347,18.9994497 130.404168,19.0341784 C130.314866,19.0689071 130.213394,19.0448752 130.149154,18.9737825 L126.141814,14.7355367 C126.103087,14.6926845 126.081826,14.6368742 126.08222,14.5791164 L126.08222,14.5791164 Z" id="Path" fill="#FFFFFF" fill-rule="nonzero"></path>
        <rect id="Rectangle" fill="#FFFFFF" fill-rule="nonzero" x="98.7086698" y="9.0746109" width="4.8415813" height="18.2490372" rx="0.52"></rect>
        <path d="M65.5177679,27.3683396 C64.5146916,27.3236481 63.4818209,27.3087509 62.4191559,27.3236481 C62.1609382,27.3286138 61.9796892,27.2119193 61.875409,26.9735645 L59.4322726,21.2381528 C59.2981981,20.9352437 59.2981981,20.6298516 59.4322726,20.3219767 L60.9964758,16.6870664 C61.0486922,16.5625252 61.1705474,16.4814833 61.3055922,16.4814833 C61.4406369,16.4814833 61.5624921,16.5625252 61.6147085,16.6870664 L66.1508977,27.1150877 C66.1841491,27.1897031 66.1825858,27.275225 66.1466298,27.3485753 C66.1106737,27.4219257 66.0440303,27.4755455 65.9646831,27.4949656 C65.7412255,27.5545543 65.5922537,27.5123456 65.5177679,27.3683396 Z" id="Path" fill="#35ADC2" fill-rule="nonzero"></path>
    </g>
</svg>